Coordinates
version=1
nRows=8
nColumns=36
inDegrees=yes

Units are S.I. units (second, meters, Newtons, ...)
If the header above contains a line with 'inDegrees', this indicates whether rotational values are in degrees (yes) or radians (no).

endheader
time	pelvis_tilt	pelvis_list	pelvis_rotation	pelvis_tx	pelvis_ty	pelvis_tz	hip_flexion_r	hip_adduction_r	hip_rotation_r	knee_angle_r	knee_angle_r_beta	ankle_angle_r	subtalar_angle_r	mtp_angle_r	hip_flexion_l	hip_adduction_l	hip_rotation_l	knee_angle_l	knee_angle_l_beta	ankle_angle_l	subtalar_angle_l	mtp_angle_l	lumbar_extension	lumbar_bending	lumbar_rotation	arm_flex_r	arm_add_r	arm_rot_r	elbow_flex_r	pro_sup_r	arm_flex_l	arm_add_l	arm_rot_l	elbow_flex_l	pro_sup_l
     14.83333330	     -7.60336498	      2.64967598	      1.03974665	      0.61099959	      1.02023940	      0.85142864	     28.05232396	     -5.35289550	     -5.28287068	      6.88354196	      0.12014047	      5.44191506	      2.04808313	     -7.49999987	      3.20135479	      1.64694516	     -5.22106303	     11.24881866	      0.19632892	     16.57941174	      3.68290041	     -7.49999987	     -3.90596795	     -0.88877901	     -2.10452928	      0.91083901	     -7.81508364	     -3.04892656	     14.44321808	     72.55198827	     10.55069563	    -11.59806083	     -3.22609770	     34.84434177	     71.40298887
     14.85000000	     -7.55688113	      2.15138426	      1.00963020	      0.61099941	      1.01841910	      0.85387128	     28.22658758	     -4.60697392	     -5.64384889	      6.73962524	      0.11762865	      5.78101520	      2.94094553	     -7.49999987	      2.77279065	      0.87739760	     -5.15610685	     11.66507460	      0.20359396	     17.54002826	      3.86589658	     -7.49999987	     -4.05743024	     -0.34860221	     -2.08214552	      1.43105612	     -7.78006096	     -3.02482730	     14.23849348	     71.94409533	     10.44102812	    -11.48613728	     -2.96257957	     35.36443041	     70.76590869
     14.86666670	     -7.20402175	      1.60953356	      1.00823080	      0.61144273	      1.01830432	      0.85617488	     27.93644643	     -3.85959447	     -6.05232884	      7.20644275	      0.12577615	      5.28655320	      3.16745419	     -7.49999987	      1.97154676	      0.09385098	     -5.18012199	     11.96085257	      0.20875626	     18.33968426	      4.08710414	     -7.49999987	     -4.41724067	      0.24567787	     -1.81113570	      1.79075061	     -7.84325870	     -2.90300299	     14.09657628	     71.88563723	     10.55685866	    -11.18624867	     -2.69835461	     35.47652538	     70.58697702
     14.88333330	     -7.09730579	      1.37597043	      0.95917705	      0.61241422	      1.01861128	      0.85771993	     27.85902265	     -3.43175182	     -6.35977711	      8.21265104	      0.14333780	      4.28428125	      3.20693214	     -7.49999987	      1.31159261	     -0.28805223	     -5.16438282	     12.10193276	      0.21121857	     18.65176622	      3.99716352	     -7.49999987	     -4.17135244	      0.46991349	     -1.67935594	      1.89393308	     -7.81921532	     -2.88989820	     14.14295904	     71.93311353	     10.24914000	    -10.89388072	     -2.60206915	     35.42173139	     70.62672851
     14.90000000	     -6.23345698	      0.52444878	      0.98666946	      0.61367180	      1.01909118	      0.85850149	     26.71248001	     -2.41344791	     -6.76473677	      9.03112441	      0.15762286	      2.29432265	      2.08195261	     -7.49999987	     -0.09187894	     -1.39077744	     -5.74443622	     12.61457977	      0.22016595	     19.15157137	      4.47201632	     -7.49999987	     -4.97801183	      1.57803392	     -1.47687344	      2.30122300	     -8.18448284	     -2.83636875	     14.07951438	     72.54261821	     10.28879759	    -10.36191537	     -2.33271188	     35.03651803	     71.03792463
     14.91666670	     -5.82394050	     -0.17636121	      1.03723262	      0.61439641	      1.01773384	      0.85985065	     26.13482144	     -1.58337793	     -7.14657096	     10.12975918	      0.17679765	      0.82653052	      1.14152176	     -7.49999987	     -0.91838272	     -2.39235040	     -6.47558532	     13.80685418	      0.24097506	     19.14770451	      4.51677301	     -7.49999987	     -5.09332668	      2.48266633	     -1.30381381	      2.46772969	     -8.46757380	     -2.94361792	     14.07180050	     72.97336468	     10.07560431	     -9.81711359	     -1.99273471	     34.57310554	     71.14347781
     14.93333330	     -5.53762008	     -0.97217502	      1.07527953	      0.61347742	      1.01569683	      0.86114778	     25.76245549	     -0.67631283	     -7.47198193	     11.36206927	      0.19830552	     -0.36434800	     -0.01149895	     -7.49999987	     -1.38553674	     -3.66026744	     -7.42124213	     16.02893248	      0.27975765	     18.73729483	      4.08531263	     -7.49999987	     -5.13155248	      3.52240835	     -1.22816841	      2.62662951	     -8.80447334	     -2.98189778	     14.33383931	     73.21985081	      9.78563018	     -9.23639391	     -1.80006533	     33.88314348	     71.11770647
     14.95000000	     -5.49526128	     -1.97068341	      1.01348053	      0.61250421	      1.01391307	      0.86147100	     25.68030671	      0.44047521	     -7.70629309	     12.64157709	      0.22063714	     -1.23343832	     -1.31628610	     -7.49999987	     -1.38792322	     -5.30794235	     -8.35836455	     19.18119388	      0.33477499	     17.84763644	      2.94135323	     -7.49999987	     -4.93155537	      4.84338403	     -1.07804426	      2.86541109	     -9.29780245	     -2.85196475	     14.49556351	     73.59089902	      9.47922870	     -8.61330618	     -1.52300499	     32.94547901	     71.21443105
